<?xml version="1.0" encoding="UTF-8" standalone="no" ?>
<!DOCTYPE svg PUBLIC "-//W3C//DTD SVG 1.1//EN" "http://www.w3.org/Graphics/SVG/1.1/DTD/svg11.dtd">
<svg xmlns="http://www.w3.org/2000/svg" xmlns:xlink="http://www.w3.org/1999/xlink" version="1.1" width="1200" height="628" viewBox="-600 -314 1200 628" xml:space="preserve">
<desc>Created with Fabric.js 5.2.4</desc>
<defs>
</defs>
<rect x="600" y="314" width="1200" height="628" fill="transparent"></rect>
<g transform="matrix(Infinity NaN NaN Infinity 0 0)" id="3cabc8a9-c607-42bc-81cd-ac6727c06fd2">
</g>
<g transform="matrix(1 0 0 1 600 314)" id="d2b9be50-1c18-4fb5-b61e-543265001b2f">
<rect style="stroke: none; stroke-width: 1; stroke-dasharray: none; stroke-linecap: butt; stroke-dashoffset: 0; stroke-linejoin: miter; stroke-miterlimit: 4; fill: rgb(255,255,255); fill-rule: nonzero; opacity: 1; visibility: hidden;" vector-effect="non-scaling-stroke" x="-600" y="-314" rx="0" ry="0" width="1200" height="628" />
</g>
<g transform="matrix(6.74 0 0 2.88 1048.3 483.5)">
<rect style="stroke: none; stroke-width: 1; stroke-dasharray: none; stroke-linecap: butt; stroke-dashoffset: 0; stroke-linejoin: miter; stroke-miterlimit: 4; fill: rgb(255,255,255); fill-rule: nonzero; opacity: 1;" vector-effect="non-scaling-stroke" x="-50" y="-40" rx="0" ry="0" width="100" height="80" />
</g>
<g transform="matrix(5.79 0 0 5.79 1046.9 484.85)">
<path style="stroke: none; stroke-width: 1; stroke-dasharray: none; stroke-linecap: butt; stroke-dashoffset: 0; stroke-linejoin: miter; stroke-miterlimit: 4; fill: rgb(12,23,36); fill-rule: nonzero; opacity: 1;" vector-effect="non-scaling-stroke" transform="translate(-64.3, -64.98)" d="M 41.172 47.891 L 41.172 73.368 L 45.766 73.368 L 45.766 47.891 L 41.172 47.891 M 88.235 47.891 L 88.235 73.368 L 92.856 73.368 L 92.856 64.18 C 93.559 64.99300000000001 94.14099999999999 65.94600000000001 94.77 66.813 L 97.926 71.19200000000001 L 99.25 73.03200000000001 C 99.371 73.19600000000001 99.57 73.626 99.777 73.68 C 99.886 73.70700000000001 100.043 73.625 100.144 73.59 L 100.968 73.297 L 104.031 72.235 L 102.57400000000001 70.399 L 99.64000000000001 66.754 L 97.94500000000002 64.641 L 97.05000000000003 63.571000000000005 L 97.05000000000003 63.540000000000006 C 97.59700000000002 63.12200000000001 98.06600000000003 62.489000000000004 98.52700000000003 61.97800000000001 L 101.15600000000003 59.162000000000006 L 102.41800000000003 57.81400000000001 C 102.59400000000004 57.61500000000001 102.82000000000004 57.44700000000001 102.93000000000004 57.20100000000001 C 102.07800000000003 56.95900000000001 101.23500000000004 56.486000000000004 100.41800000000003 56.135000000000005 C 100.21500000000003 56.04900000000001 99.69100000000003 55.705000000000005 99.47300000000004 55.776 C 99.32100000000004 55.827000000000005 99.17600000000004 56.073 99.07500000000005 56.194 L 98.14900000000004 57.264 L 94.66100000000004 61.307 L 93.71200000000005 62.409 C 93.59500000000004 62.542 93.45400000000005 62.78 93.28200000000004 62.85 C 93.16100000000004 62.897 92.98900000000003 62.866 92.85600000000004 62.866 L 92.85600000000004 47.891 L 88.23500000000004 47.891 M 109.11400000000005 51.704 C 108.88503991913427 51.736168381691094 108.66609306994383 51.8188285026023 108.47300000000004 51.946 C 107.16400000000004 52.829 107.94200000000004 55.050999999999995 109.54300000000003 54.797999999999995 C 109.78500000000004 54.763 110.01600000000003 54.684999999999995 110.21900000000004 54.544 C 111.52000000000004 53.645999999999994 110.71100000000004 51.45399999999999 109.11400000000003 51.70399999999999 M 109.14500000000004 51.94199999999999 C 110.78600000000004 51.70799999999999 111.13300000000004 54.34799999999999 109.51200000000004 54.55899999999999 C 107.90700000000004 54.76999999999999 107.55900000000004 52.17199999999999 109.14500000000004 51.94199999999999 M 108.77800000000003 54.13699999999999 L 109.05500000000004 54.13699999999999 L 109.05500000000004 53.40299999999999 C 109.22300000000004 53.40299999999999 109.40700000000004 53.39099999999999 109.52400000000003 53.53199999999999 C 109.75100000000003 53.80899999999999 109.54000000000003 54.136999999999986 110.00400000000003 54.136999999999986 C 109.94500000000004 53.86399999999998 109.94500000000004 53.417999999999985 109.63700000000003 53.31299999999999 C 109.73100000000002 53.25099999999999 109.82500000000003 53.191999999999986 109.89100000000003 53.097999999999985 C 110.28200000000004 52.51999999999998 109.20400000000004 52.124999999999986 108.82900000000004 52.42599999999999 C 108.73500000000004 52.499999999999986 108.77800000000003 52.74599999999999 108.77800000000003 52.85199999999999 L 108"/>
</g>
</svg>
